# xmcd
#
# Track frame offsets:
#	150
#	9475
#	28787
#	41857
#	53677
#	70285
#	85907
#	104812
#	120605
#	134485
#	150237
#	165080
#	182017
#	211495
#	233387
#
# Disc length: 3294 seconds
#
# Revision: 0
# Processed by: cddbd v1.5.2PL0 Copyright (c) Steve Scherf et al.
# Submitted via: audiograbber 1.83.01
#
DISCID=bf0cdc0f
DTITLE=Lou Reed and John Cale - Songs For Drella
DYEAR=1990
DGENRE=Alternative
TTITLE0=Small Town
TTITLE1=Open House
TTITLE2=Style It Takes
TTITLE3=Work
TTITLE4=Trouble With Classicists
TTITLE5=Starlight
TTITLE6=Faces And Names
TTITLE7=Images
TTITLE8=Slip Away (A Warning)
TTITLE9=It Wasn't Me
TTITLE10=I Believe
TTITLE11=Nobody But You
TTITLE12=A Dream
TTITLE13=Forever Changed
TTITLE14=Hello It's Me
EXTD=
EXTT0=
EXTT1=
EXTT2=
EXTT3=
EXTT4=
EXTT5=
EXTT6=
EXTT7=
EXTT8=
EXTT9=
EXTT10=
EXTT11=
EXTT12=
EXTT13=
EXTT14=
PLAYORDER=
